<svg xmlns="http://www.w3.org/2000/svg" viewBox="0 0 24 24" width="24px" height="24px">
  <path d="M14,4c0-0.174,0-0.826,0-1c0-1.105,0.895-2,2-2s2,0.895,2,2c0,0.174,0,0.826,0,1c0,1.105-0.895,2-2,2S14,5.105,14,4z M7,7 c1.105,0,2-0.895,2-2c0-0.174,0-0.826,0-1c0-1.105-0.895-2-2-2S5,2.895,5,4c0,0.174,0,0.826,0,1C5,6.105,5.895,7,7,7z M21.233,2.027 c-0.535-0.125-1.075,0.203-1.205,0.74l-0.644,2.69L17.54,7.073L14.8,7.635c-0.222,0.045-0.421,0.164-0.566,0.337l-2,2.386 c-0.08,0.097-0.143,0.207-0.182,0.326l-1,3c-0.175,0.524,0.108,1.091,0.632,1.265C11.789,14.983,11.896,15,12,15 c0.419,0,0.809-0.265,0.948-0.684l0.94-2.819l1.124-1.341l0.027,2.567c0,0.001-0.001,0.001-0.001,0.002l-2,7 c-0.151,0.53,0.156,1.084,0.688,1.236C13.817,20.987,13.909,21,14.001,21c0.435,0,0.835-0.286,0.961-0.726l1.401-4.904l1.634-0.573 L19,16.303V20c0,0.553,0.447,1,1,1s1-0.447,1-1v-4c0-0.197-0.059-0.391-0.168-0.555l-1.83-2.745l-0.002-4.248l1.942-1.701 c0.155-0.137,0.266-0.317,0.313-0.52l0.718-3C22.102,2.695,21.771,2.156,21.233,2.027z M8.607,13.198l0.769-3.131l2.335-2.363 C11.896,7.516,12,7.263,12,7V4c0-0.553-0.447-1-1-1s-1,0.447-1,1v2.589l-1.856,1.88L5.476,8.061L4,6.586V4c0-0.553-0.447-1-1-1 S2,3.447,2,4v3c0,0.266,0.105,0.52,0.293,0.707l2,2c0.1,0.1,0.223,0.167,0.354,0.216l-0.468,2.151C4.06,12.616,4,13.173,4,13.729V20 c0,0.553,0.447,1,1,1s1-0.447,1-1v-5.807l0.976,0.189L8,16.256V20c0,0.553,0.447,1,1,1s1-0.447,1-1v-4 c0-0.168-0.042-0.333-0.123-0.479L8.607,13.198z" fill="#000000" />
</svg>